<svg xmlns="http://www.w3.org/2000/svg" viewBox="-550.0 -550.0 1100.0 1100.0">
  <g transform="scale(1, -1)">
    <path d="M -440,500 L 440,500 L 500,440 L 500,-440 L 440,-500 L -440,-500 L -500,-440 L -500,440 Z" fill="#000000" stroke="#ffffff" stroke-width="14" />
    <path d="m -100, 0 a 100,100 0 1,0 200,0 a 100,100 0 1,0 -200,0" transform="translate(-250.0, 250.0)" fill="orange" />
    <path d="m -100, 0 a 100,100 0 1,0 200,0 a 100,100 0 1,0 -200,0" transform="translate(250.0, 250.0)" fill="orange" />
    <path d="m -100, 0 a 100,100 0 1,0 200,0 a 100,100 0 1,0 -200,0" transform="translate(-250.0, -250.0)" fill="green" />
    <path d="m -100, 0 a 100,100 0 1,0 200,0 a 100,100 0 1,0 -200,0" transform="translate(250.0, 0.0)" fill="green" />
    <path d="m -100, 0 a 100,100 0 1,0 200,0 a 100,100 0 1,0 -200,0" transform="translate(250.0, -250.0)" fill="orange" />
  </g>
</svg>