<svg xmlns="http://www.w3.org/2000/svg" viewBox="-350.0 -350.0 700.0 700.0">
  <g transform="scale(1, -1)">
    <path d="M -260,260 L 260,260 L 260,-260 L -260,-260 Z" fill="#000000" stroke="none" stroke-width="0" />
    <path d="m -40, 0 a 40,40 0 1,0 80,0 a 40,40 0 1,0 -80,0" transform="translate(-200.0, 200.0)" fill="white" />
    <path d="m -40, 0 a 40,40 0 1,0 80,0 a 40,40 0 1,0 -80,0" transform="translate(0.0, 200.0)" fill="white" />
    <path d="m -40, 0 a 40,40 0 1,0 80,0 a 40,40 0 1,0 -80,0" transform="translate(200.0, 200.0)" fill="white" />
    <path d="m -40, 0 a 40,40 0 1,0 80,0 a 40,40 0 1,0 -80,0" transform="translate(-100.0, 100.0)" fill="white" />
    <path d="m -40, 0 a 40,40 0 1,0 80,0 a 40,40 0 1,0 -80,0" transform="translate(0.0, 100.0)" fill="white" />
    <path d="m -40, 0 a 40,40 0 1,0 80,0 a 40,40 0 1,0 -80,0" transform="translate(100.0, 100.0)" fill="white" />
    <path d="m -40, 0 a 40,40 0 1,0 80,0 a 40,40 0 1,0 -80,0" transform="translate(-200.0, 0.0)" fill="white" />
    <path d="m -40, 0 a 40,40 0 1,0 80,0 a 40,40 0 1,0 -80,0" transform="translate(-100.0, 0.0)" fill="white" />
    <path d="m -40, 0 a 40,40 0 1,0 80,0 a 40,40 0 1,0 -80,0" transform="translate(0.0, 0.0)" fill="white" />
    <path d="m -40, 0 a 40,40 0 1,0 80,0 a 40,40 0 1,0 -80,0" transform="translate(100.0, 0.0)" fill="white" />
    <path d="m -40, 0 a 40,40 0 1,0 80,0 a 40,40 0 1,0 -80,0" transform="translate(200.0, 0.0)" fill="white" />
    <path d="m -40, 0 a 40,40 0 1,0 80,0 a 40,40 0 1,0 -80,0" transform="translate(-100.0, -100.0)" fill="white" />
    <path d="m -40, 0 a 40,40 0 1,0 80,0 a 40,40 0 1,0 -80,0" transform="translate(0.0, -100.0)" fill="white" />
    <path d="m -40, 0 a 40,40 0 1,0 80,0 a 40,40 0 1,0 -80,0" transform="translate(100.0, -100.0)" fill="white" />
    <path d="m -40, 0 a 40,40 0 1,0 80,0 a 40,40 0 1,0 -80,0" transform="translate(-200.0, -200.0)" fill="white" />
    <path d="m -40, 0 a 40,40 0 1,0 80,0 a 40,40 0 1,0 -80,0" transform="translate(0.0, -200.0)" fill="white" />
    <path d="m -40, 0 a 40,40 0 1,0 80,0 a 40,40 0 1,0 -80,0" transform="translate(200.0, -200.0)" fill="white" />
  </g>
</svg>