<svg xmlns="http://www.w3.org/2000/svg" viewBox="-230.0 -230.0 460.0 460.0">
  <g transform="scale(1, -1)">
    <path d="M -150,150 L 0,150 L 150,0 L 150,-150 L -150,-150 Z" fill="#000000" stroke="none" stroke-width="0" />
    <path d="M -20,-100 L 20,-100 L 20,100 L -20,100 Z" transform="translate(0.0, 0.0)" fill="orange" />
    <path d="m -40, 0 a 40,40 0 1,0 80,0 a 40,40 0 1,0 -80,0" transform="translate(-80.0, -80.0)" fill="white" />
    <path d="m -40, 0 a 40,40 0 1,0 80,0 a 40,40 0 1,0 -80,0" transform="translate(-80.0, 80.0)" fill="white" />
    <path d="m -40, 0 a 40,40 0 1,0 80,0 a 40,40 0 1,0 -80,0" transform="translate(80.0, -80.0)" fill="white" />
  </g>
</svg>