<svg xmlns="http://www.w3.org/2000/svg" viewBox="-250.0 -250.0 500.0 500.0">
  <g transform="scale(1, -1)">
    <path d="M -200,200 L 200,200 L 200,-200 L -200,-200 Z" fill="#000000" stroke="none" stroke-width="0" />
    <path d="m -80, 0 a 80,80 0 1,0 160,0 a 80,80 0 1,0 -160,0" transform="translate(-100.0, 0.0)" fill="red" />
    <path d="m -80, 0 a 80,80 0 1,0 160,0 a 80,80 0 1,0 -160,0" transform="translate(100.0, 0.0)" fill="red" />
    <path d="m -80, 0 a 80,80 0 1,0 160,0 a 80,80 0 1,0 -160,0" transform="translate(-100.0, -100.0)" fill="white" />
    <path d="m -80, 0 a 80,80 0 1,0 160,0 a 80,80 0 1,0 -160,0" transform="translate(100.0, 100.0)" fill="white" />
  </g>
</svg>