<svg xmlns="http://www.w3.org/2000/svg" viewBox="-400.0 -550.0 800.0 1700.0">
  <g transform="scale(1, -1)">
    <path d="M -350,400 L -250,500 L 250,500 L 350,400 L 350,-1100 L -350,-1100 Z" fill="#000000" stroke="none" stroke-width="0" />
    <path d="m -70, 0 a 70,70 0 1,0 140,0 a 70,70 0 1,0 -140,0" transform="translate(0.0, 230.0)" fill="green" />
    <path d="m -70, 0 a 70,70 0 1,0 140,0 a 70,70 0 1,0 -140,0" transform="translate(-120.0, 0.0)" fill="red" />
    <path d="m -70, 0 a 70,70 0 1,0 140,0 a 70,70 0 1,0 -140,0" transform="translate(120.0, 0.0)" fill="red" />
    <path d="m -70, 0 a 70,70 0 1,0 140,0 a 70,70 0 1,0 -140,0" transform="translate(0.0, -810.0)" fill="yellow" />
  </g>
</svg>