<svg xmlns="http://www.w3.org/2000/svg" viewBox="-250.0 -450.0 500.0 900.0">
  <g transform="scale(1, -1)">
    <path d="M -200,400 L 200,400 L 200,-400 L -200,-400 Z" fill="#000000" stroke="none" stroke-width="0" />
    <path d="M 0,0 m -100,0 a 100,100 0 1,0 200,0 a 100,100 0 1,0 -200,0 M 0,0 m -70,0 a 70,70 0 1,1 140,0 a 70,70 0 1,1 -140,0" transform="translate(0.0, 200.0)" fill="green" />
    <path d="m -40, 0 a 40,40 0 1,0 80,0 a 40,40 0 1,0 -80,0" transform="translate(0.0, -100.0)" fill="white" />
    <path d="m -40, 0 a 40,40 0 1,0 80,0 a 40,40 0 1,0 -80,0" transform="translate(0.0, -200.0)" fill="white" />
    <path d="m -40, 0 a 40,40 0 1,0 80,0 a 40,40 0 1,0 -80,0" transform="translate(0.0, -300.0)" fill="white" />
  </g>
</svg>