<svg xmlns="http://www.w3.org/2000/svg" viewBox="-300.0 -650.0 600.0 1900.0">
  <g transform="scale(1, -1)">
    <path d="M -250,600 L 250,600 L 250,-1200 L -250,-1200 Z" fill="#000000" stroke="none" stroke-width="0" />
    <path d="m -100, 0 a 100,100 0 1,0 200,0 a 100,100 0 1,0 -200,0" transform="translate(0.0, 400.0)" fill="green" />
    <path d="m -100, 0 a 100,100 0 1,0 200,0 a 100,100 0 1,0 -200,0" transform="translate(0.0, 0.0)" fill="yellow" />
    <path d="m -100, 0 a 100,100 0 1,0 200,0 a 100,100 0 1,0 -200,0" transform="translate(0.0, -400.0)" fill="red" />
    <path d="M -80,-80 L -80,80 L -60,80 L -60,-80 Z M 40,80 L 100,80 L 100,60 L 60,60 L 60,10 L 90,10 L 90,-10 L 60,-10 L 60,-60 L 100,-60 L 100,-80 L 40,-80 L 40,-60 L 80,-60 L 80,-10 L 60,-10 L 60,10 L 80,10 L 80,60 L 40,60 Z" transform="translate(0.0, -800.0)" fill="yellow" />
    <path d="M -50,80 L 50,80 L 50,-80 L -50,-80 Z M -30,60 L -30,10 L 30,10 L 30,60 Z M -30,-10 L -30,-60 L 30,-60 L 30,-10 Z" transform="translate(0.0, -800.0)" fill="yellow" />
    <path d="M -50,80 L 50,80 L 50,60 L -30,60 L -30,10 L 50,10 L 50,-80 L -50,-80 Z M -30,-10 L -30,-60 L 30,-60 L 30,-10 Z" transform="translate(0.0, -800.0)" fill="yellow" />
  </g>
</svg>