<svg xmlns="http://www.w3.org/2000/svg" viewBox="-270.0 -600.0 540.0 1200.0">
  <g transform="scale(1, -1)">
    <path d="M -120,550 L 120,550 L 220,450 L 220,-450 L 120,-550 L -120,-550 L -220,-450 L -220,450 Z" fill="#000000" stroke="none" stroke-width="0" />
    <path d="m -100, 0 a 100,100 0 1,0 200,0 a 100,100 0 1,0 -200,0" transform="translate(-120.0, 375.0)" fill="green" />
    <path d="m -100, 0 a 100,100 0 1,0 200,0 a 100,100 0 1,0 -200,0" transform="translate(-120.0, 125.0)" fill="yellow" />
    <path d="m -100, 0 a 100,100 0 1,0 200,0 a 100,100 0 1,0 -200,0" transform="translate(-120.0, -125.0)" fill="green" />
    <path d="m -100, 0 a 100,100 0 1,0 200,0 a 100,100 0 1,0 -200,0" transform="translate(-120.0, -375.0)" fill="green" />
    <path d="m -100, 0 a 100,100 0 1,0 200,0 a 100,100 0 1,0 -200,0" transform="translate(120.0, 250.0)" fill="red" />
    <path d="m -100, 0 a 100,100 0 1,0 200,0 a 100,100 0 1,0 -200,0" transform="translate(120.0, 0.0)" fill="#808080" />
    <path d="m -100, 0 a 100,100 0 1,0 200,0 a 100,100 0 1,0 -200,0" transform="translate(120.0, -250.0)" fill="yellow" />
  </g>
</svg>