<svg xmlns="http://www.w3.org/2000/svg" viewBox="-250.0 -900.0 500.0 1800.0">
  <g transform="scale(1, -1)">
    <path d="M -100,850 L 100,850 L 200,750 L 200,-750 L 100,-850 L -100,-850 L -200,-750 L -200,750 Z" fill="#000000" stroke="none" stroke-width="0" />
    <path d="m -100, 0 a 100,100 0 1,0 200,0 a 100,100 0 1,0 -200,0" transform="translate(0.0, 600.0)" fill="green" />
    <path d="m -100, 0 a 100,100 0 1,0 200,0 a 100,100 0 1,0 -200,0" transform="translate(0.0, 200.0)" fill="red" />
    <path d="m -100, 0 a 100,100 0 1,0 200,0 a 100,100 0 1,0 -200,0" transform="translate(0.0, -200.0)" fill="yellow" />
    <path d="m -100, 0 a 100,100 0 1,0 200,0 a 100,100 0 1,0 -200,0" transform="translate(0.0, -600.0)" fill="green" />
  </g>
</svg>