<svg xmlns="http://www.w3.org/2000/svg" viewBox="-500.0 -500.0 1000.0 1000.0">
  <g transform="scale(1, -1)">
    <path d="M -450,450 L 450,450 L 450,-450 L -450,-450 Z" fill="#000000" stroke="none" />
    <path d="M 410,0 A 410,410 0 1,0 -410,0 A 410,410 0 1,0 410,0" fill="none" stroke="white" stroke-width="30" />
    <path d="m -100, 0 a 100,100 0 1,0 200,0 a 100,100 0 1,0 -200,0" transform="translate(173.0, -100.0)" fill="green" />
    <path d="m -100, 0 a 100,100 0 1,0 200,0 a 100,100 0 1,0 -200,0" transform="translate(-173.0, -100.0)" fill="orange" />
    <path d="m -100, 0 a 100,100 0 1,0 200,0 a 100,100 0 1,0 -200,0" transform="translate(0.0, 200.0)" fill="red" />
  </g>
</svg>