<svg xmlns="http://www.w3.org/2000/svg" viewBox="-270.0 -250.0 520.0 500.0">
  <g transform="scale(1, -1)">
    <path d="M -140,180 L 140,180 A 40,40 0 0 0 180,140 L 100,-100 Q 0,-220 -100,-100 L -180,140 A 40,40 0 0 0 -140,180 Z" fill="#000000" stroke="none" />
    <path d="m -40, 0 a 40,40 0 1,0 80,0 a 40,40 0 1,0 -80,0" transform="translate(0.0, -100.0)" fill="white" />
    <path d="m -40, 0 a 40,40 0 1,0 80,0 a 40,40 0 1,0 -80,0" transform="translate(100.0, 100.0)" fill="white" />
    <path d="m -40, 0 a 40,40 0 1,0 80,0 a 40,40 0 1,0 -80,0" transform="translate(-100.0, 100.0)" fill="white" />
  </g>
</svg>