<svg xmlns="http://www.w3.org/2000/svg" viewBox="-450.0 -450.0 900.0 900.0">
  <g transform="scale(1, -1)">
    <path d="M -400,-400 L -400,0 L 0,400 L 400,400 L 400,0 L 0,-400 Z" fill="#000000" stroke="none" stroke-width="0" />
    <path d="m -100, 0 a 100,100 0 1,0 200,0 a 100,100 0 1,0 -200,0" transform="translate(250.0, 250.0)" fill="yellow" />
    <path d="m -80, 0 a 80,80 0 1,0 160,0 a 80,80 0 1,0 -160,0" transform="translate(250.0, 250.0)" fill="green" />
    <path d="m -100, 0 a 100,100 0 1,0 200,0 a 100,100 0 1,0 -200,0" transform="translate(-250.0, -250.0)" fill="yellow" />
    <path d="m -80, 0 a 80,80 0 1,0 160,0 a 80,80 0 1,0 -160,0" transform="translate(-250.0, -250.0)" fill="green" />
  </g>
</svg>