<svg xmlns="http://www.w3.org/2000/svg" viewBox="-400.0 -800.0 800.0 1600.0">
  <g transform="scale(1, -1)">
    <path d="M -350,750 L 350,750 L 350,-750 L -350,-750 Z" fill="#000000" stroke="none" stroke-width="0" />
    <path d="m -100, 0 a 100,100 0 1,0 200,0 a 100,100 0 1,0 -200,0" transform="translate(0.0, 500.0)" fill="green" />
    <path d="m -100, 0 a 100,100 0 1,0 200,0 a 100,100 0 1,0 -200,0" transform="translate(0.0, 0.0)" fill="red" />
    <path d="m -100, 0 a 100,100 0 1,0 200,0 a 100,100 0 1,0 -200,0" transform="translate(0.0, -500.0)" fill="yellow" />
    <path d="m -60, 0 a 60,60 0 1,0 120,0 a 60,60 0 1,0 -120,0" transform="translate(-80.0, -330.0)" fill="white" />
    <path d="m -60, 0 a 60,60 0 1,0 120,0 a 60,60 0 1,0 -120,0" transform="translate(80.0, -170.0)" fill="white" />
  </g>
</svg>