<svg xmlns="http://www.w3.org/2000/svg" viewBox="-400.0 -800.0 800.0 1600.0">
  <g transform="scale(1, -1)">
    <path d="M -350,750 L 350,750 L 350,-750 L -350,-750 Z" fill="#000000" stroke="none" />
    <path d="m -100, 0 a 100,100 0 1,0 200,0 a 100,100 0 1,0 -200,0" transform="translate(0.0, 500.0)" fill="green" />
    <path d="m -100, 0 a 100,100 0 1,0 200,0 a 100,100 0 1,0 -200,0" transform="translate(0.0, 0.0)" fill="red" />
    <path d="m -100, 0 a 100,100 0 1,0 200,0 a 100,100 0 1,0 -200,0" transform="translate(0.0, -500.0)" fill="yellow" />
    <path d="m -80, 0 a 80,80 0 1,0 160,0 a 80,80 0 1,0 -160,0" transform="translate(-150.0, -300.0)" fill="white" />
  </g>
</svg>