<svg xmlns="http://www.w3.org/2000/svg" viewBox="-300.0 -200.0 600.0 400.0">
  <g transform="scale(1, -1)">
    <path d="M -250,150 L 250,150 L 250,-150 L -250,-150 Z" fill="#000000" stroke="none" />
    <path d="m -80, 0 a 80,80 0 1,0 160,0 a 80,80 0 1,0 -160,0" transform="translate(-150.0, 0.0)" fill="red" />
    <path d="m -80, 0 a 80,80 0 1,0 160,0 a 80,80 0 1,0 -160,0" transform="translate(-150.0, 0.0)" fill="green" />
    <path d="m -80, 0 a 80,80 0 1,0 160,0 a 80,80 0 1,0 -160,0" transform="translate(-150.0, 0.0)" fill="yellow" />
    <path d="m -80, 0 a 80,80 0 1,0 160,0 a 80,80 0 1,0 -160,0" transform="translate(150.0, 0.0)" fill="red" />
    <path d="m -80, 0 a 80,80 0 1,0 160,0 a 80,80 0 1,0 -160,0" transform="translate(150.0, 0.0)" fill="green" />
    <path d="m -80, 0 a 80,80 0 1,0 160,0 a 80,80 0 1,0 -160,0" transform="translate(150.0, 0.0)" fill="yellow" />
  </g>
</svg>